# 3ds Max Wavefront OBJ Exporter v0.97b - (c)2007 guruware
# File Created: 14.04.2015 11:46:52

mtllib cone.mtl

#
# object Cone01
#

v  0.0000 100.0000 -0.0000
v  13.5230 80.0000 3.6235
v  14.0000 80.0000 -0.0000
v  12.1244 80.0000 7.0000
v  9.8995 80.0000 9.8995
v  7.0000 80.0000 12.1244
v  3.6235 80.0000 13.5230
v  0.0000 80.0000 14.0000
v  -3.6235 80.0000 13.5230
v  -7.0000 80.0000 12.1244
v  -9.8995 80.0000 9.8995
v  -12.1244 80.0000 7.0000
v  -13.5230 80.0000 3.6235
v  -14.0000 80.0000 0.0000
v  -13.5230 80.0000 -3.6235
v  -12.1244 80.0000 -7.0000
v  -9.8995 80.0000 -9.8995
v  -7.0000 80.0000 -12.1244
v  -3.6235 80.0000 -13.5230
v  -0.0000 80.0000 -14.0000
v  3.6235 80.0000 -13.5230
v  7.0000 80.0000 -12.1244
v  9.8995 80.0000 -9.8995
v  12.1244 80.0000 -7.0000
v  13.5230 80.0000 -3.6235
v  27.0459 60.0000 7.2469
v  28.0000 60.0000 -0.0000
v  24.2487 60.0000 14.0000
v  19.7990 60.0000 19.7990
v  14.0000 60.0000 24.2487
v  7.2469 60.0000 27.0459
v  0.0000 60.0000 28.0000
v  -7.2469 60.0000 27.0459
v  -14.0000 60.0000 24.2487
v  -19.7990 60.0000 19.7990
v  -24.2487 60.0000 14.0000
v  -27.0459 60.0000 7.2469
v  -28.0000 60.0000 0.0000
v  -27.0459 60.0000 -7.2469
v  -24.2487 60.0000 -14.0000
v  -19.7990 60.0000 -19.7990
v  -14.0000 60.0000 -24.2487
v  -7.2469 60.0000 -27.0459
v  -0.0000 60.0000 -28.0000
v  7.2469 60.0000 -27.0459
v  14.0000 60.0000 -24.2487
v  19.7990 60.0000 -19.7990
v  24.2487 60.0000 -14.0000
v  27.0459 60.0000 -7.2470
v  40.5689 40.0000 10.8704
v  42.0000 40.0000 -0.0000
v  36.3731 40.0000 21.0000
v  29.6985 40.0000 29.6985
v  21.0000 40.0000 36.3731
v  10.8704 40.0000 40.5689
v  0.0000 40.0000 42.0000
v  -10.8704 40.0000 40.5689
v  -21.0000 40.0000 36.3731
v  -29.6985 40.0000 29.6985
v  -36.3731 40.0000 21.0000
v  -40.5689 40.0000 10.8704
v  -42.0000 40.0000 0.0000
v  -40.5689 40.0000 -10.8704
v  -36.3731 40.0000 -21.0000
v  -29.6985 40.0000 -29.6985
v  -21.0000 40.0000 -36.3731
v  -10.8704 40.0000 -40.5689
v  -0.0000 40.0000 -42.0000
v  10.8704 40.0000 -40.5689
v  21.0000 40.0000 -36.3731
v  29.6985 40.0000 -29.6985
v  36.3731 40.0000 -21.0000
v  40.5689 40.0000 -10.8704
v  54.0918 20.0000 14.4939
v  56.0000 20.0000 -0.0000
v  48.4974 20.0000 28.0000
v  39.5980 20.0000 39.5980
v  28.0000 20.0000 48.4974
v  14.4939 20.0000 54.0918
v  0.0000 20.0000 56.0000
v  -14.4939 20.0000 54.0918
v  -28.0000 20.0000 48.4974
v  -39.5980 20.0000 39.5980
v  -48.4974 20.0000 28.0000
v  -54.0918 20.0000 14.4939
v  -56.0000 20.0000 0.0000
v  -54.0919 20.0000 -14.4939
v  -48.4974 20.0000 -28.0000
v  -39.5980 20.0000 -39.5980
v  -28.0000 20.0000 -48.4974
v  -14.4939 20.0000 -54.0919
v  -0.0000 20.0000 -56.0000
v  14.4938 20.0000 -54.0919
v  28.0000 20.0000 -48.4975
v  39.5980 20.0000 -39.5980
v  48.4974 20.0000 -28.0000
v  54.0918 20.0000 -14.4939
v  67.6148 0.0000 18.1173
v  70.0000 0.0000 -0.0000
v  60.6218 -0.0000 35.0000
v  49.4975 -0.0000 49.4975
v  35.0000 -0.0000 60.6218
v  18.1173 -0.0000 67.6148
v  0.0000 -0.0000 70.0000
v  -18.1173 -0.0000 67.6148
v  -35.0000 -0.0000 60.6218
v  -49.4975 -0.0000 49.4975
v  -60.6218 -0.0000 35.0000
v  -67.6148 0.0000 18.1173
v  -70.0000 0.0000 0.0000
v  -67.6148 0.0000 -18.1173
v  -60.6218 0.0000 -35.0000
v  -49.4975 0.0000 -49.4975
v  -35.0000 0.0000 -60.6218
v  -18.1174 0.0000 -67.6148
v  -0.0000 0.0000 -70.0000
v  18.1173 0.0000 -67.6148
v  35.0000 0.0000 -60.6218
v  49.4974 0.0000 -49.4975
v  60.6218 0.0000 -35.0001
v  67.6148 0.0000 -18.1174
v  0.0000 0.0000 -0.0000
# 122 vertices

vn 1.0000 0.0000 -0.0000
vn 0.8145 0.5702 0.1072
vn 0.7590 0.5702 0.3144
vn 0.7913 0.5735 0.2120
vn 0.8192 0.5735 -0.0000
vn 0.6518 0.5702 0.5001
vn 0.7095 0.5735 0.4096
vn 0.5001 0.5702 0.6518
vn 0.5793 0.5735 0.5793
vn 0.3144 0.5702 0.7590
vn 0.4096 0.5735 0.7095
vn 0.1072 0.5702 0.8145
vn 0.2120 0.5735 0.7913
vn -0.1072 0.5702 0.8145
vn -0.0000 0.5735 0.8192
vn -0.3144 0.5702 0.7590
vn -0.2120 0.5735 0.7913
vn -0.5001 0.5702 0.6518
vn -0.4096 0.5735 0.7095
vn -0.6518 0.5702 0.5001
vn -0.5793 0.5735 0.5793
vn -0.7590 0.5702 0.3144
vn -0.7095 0.5735 0.4096
vn -0.8145 0.5702 0.1072
vn -0.7913 0.5735 0.2120
vn -0.8145 0.5702 -0.1072
vn -0.8192 0.5735 0.0000
vn -0.7590 0.5702 -0.3144
vn -0.7913 0.5735 -0.2120
vn -0.6518 0.5702 -0.5001
vn -0.7095 0.5735 -0.4096
vn -0.5001 0.5702 -0.6518
vn -0.5793 0.5735 -0.5793
vn -0.3144 0.5702 -0.7590
vn -0.4096 0.5735 -0.7095
vn -0.1072 0.5702 -0.8145
vn -0.2120 0.5735 -0.7913
vn 0.1072 0.5702 -0.8145
vn -0.0000 0.5735 -0.8192
vn 0.3144 0.5702 -0.7590
vn 0.2120 0.5735 -0.7913
vn 0.5001 0.5702 -0.6518
vn 0.4096 0.5735 -0.7095
vn 0.6518 0.5702 -0.5001
vn 0.5793 0.5735 -0.5793
vn 0.7590 0.5702 -0.3144
vn 0.7095 0.5735 -0.4096
vn 0.8145 0.5702 -0.1072
vn 0.7913 0.5735 -0.2120
vn 0.0000 0.5735 0.8192
vn 0.0000 -1.0000 -0.0000
# 51 vertex normals

vt 0.5000 0.0000 0.0000
vt 0.7917 0.2000 0.2000
vt 0.7500 0.2000 0.2000
vt 0.8333 0.2000 0.2000
vt 0.8750 0.2000 0.2000
vt 0.9167 0.2000 0.2000
vt 0.9583 0.2000 0.2000
vt 1.0000 0.2000 0.2000
vt 0.0417 0.2000 0.2000
vt -0.0000 0.2000 0.2000
vt 0.0833 0.2000 0.2000
vt 0.1250 0.2000 0.2000
vt 0.1667 0.2000 0.2000
vt 0.2083 0.2000 0.2000
vt 0.2500 0.2000 0.2000
vt 0.2917 0.2000 0.2000
vt 0.3333 0.2000 0.2000
vt 0.3750 0.2000 0.2000
vt 0.4167 0.2000 0.2000
vt 0.4583 0.2000 0.2000
vt 0.5000 0.2000 0.2000
vt 0.5417 0.2000 0.2000
vt 0.5833 0.2000 0.2000
vt 0.6250 0.2000 0.2000
vt 0.6667 0.2000 0.2000
vt 0.7083 0.2000 0.2000
vt 0.7917 0.4000 0.4000
vt 0.7500 0.4000 0.4000
vt 0.8333 0.4000 0.4000
vt 0.8750 0.4000 0.4000
vt 0.9167 0.4000 0.4000
vt 0.9583 0.4000 0.4000
vt 1.0000 0.4000 0.4000
vt 0.0417 0.4000 0.4000
vt -0.0000 0.4000 0.4000
vt 0.0833 0.4000 0.4000
vt 0.1250 0.4000 0.4000
vt 0.1667 0.4000 0.4000
vt 0.2083 0.4000 0.4000
vt 0.2500 0.4000 0.4000
vt 0.2917 0.4000 0.4000
vt 0.3333 0.4000 0.4000
vt 0.3750 0.4000 0.4000
vt 0.4167 0.4000 0.4000
vt 0.4583 0.4000 0.4000
vt 0.5000 0.4000 0.4000
vt 0.5417 0.4000 0.4000
vt 0.5833 0.4000 0.4000
vt 0.6250 0.4000 0.4000
vt 0.6667 0.4000 0.4000
vt 0.7083 0.4000 0.4000
vt 0.7917 0.6000 0.6000
vt 0.7500 0.6000 0.6000
vt 0.8333 0.6000 0.6000
vt 0.8750 0.6000 0.6000
vt 0.9167 0.6000 0.6000
vt 0.9583 0.6000 0.6000
vt 1.0000 0.6000 0.6000
vt 0.0417 0.6000 0.6000
vt 0.0000 0.6000 0.6000
vt 0.0833 0.6000 0.6000
vt 0.1250 0.6000 0.6000
vt 0.1667 0.6000 0.6000
vt 0.2083 0.6000 0.6000
vt 0.2500 0.6000 0.6000
vt 0.2917 0.6000 0.6000
vt 0.3333 0.6000 0.6000
vt 0.3750 0.6000 0.6000
vt 0.4167 0.6000 0.6000
vt 0.4583 0.6000 0.6000
vt 0.5000 0.6000 0.6000
vt 0.5417 0.6000 0.6000
vt 0.5833 0.6000 0.6000
vt 0.6250 0.6000 0.6000
vt 0.6667 0.6000 0.6000
vt 0.7083 0.6000 0.6000
vt 0.7917 0.8000 0.8000
vt 0.7500 0.8000 0.8000
vt 0.8333 0.8000 0.8000
vt 0.8750 0.8000 0.8000
vt 0.9167 0.8000 0.8000
vt 0.9583 0.8000 0.8000
vt 1.0000 0.8000 0.8000
vt 0.0417 0.8000 0.8000
vt -0.0000 0.8000 0.8000
vt 0.0833 0.8000 0.8000
vt 0.1250 0.8000 0.8000
vt 0.1667 0.8000 0.8000
vt 0.2083 0.8000 0.8000
vt 0.2500 0.8000 0.8000
vt 0.2917 0.8000 0.8000
vt 0.3333 0.8000 0.8000
vt 0.3750 0.8000 0.8000
vt 0.4167 0.8000 0.8000
vt 0.4583 0.8000 0.8000
vt 0.5000 0.8000 0.8000
vt 0.5417 0.8000 0.8000
vt 0.5833 0.8000 0.8000
vt 0.6250 0.8000 0.8000
vt 0.6667 0.8000 0.8000
vt 0.7083 0.8000 0.8000
vt 0.7917 1.0000 1.0000
vt 0.7500 1.0000 1.0000
vt 0.8333 1.0000 1.0000
vt 0.8750 1.0000 1.0000
vt 0.9167 1.0000 1.0000
vt 0.9583 1.0000 1.0000
vt 1.0000 1.0000 1.0000
vt 0.0417 1.0000 1.0000
vt -0.0000 1.0000 1.0000
vt 0.0833 1.0000 1.0000
vt 0.1250 1.0000 1.0000
vt 0.1667 1.0000 1.0000
vt 0.2083 1.0000 1.0000
vt 0.2500 1.0000 1.0000
vt 0.2917 1.0000 1.0000
vt 0.3333 1.0000 1.0000
vt 0.3750 1.0000 1.0000
vt 0.4167 1.0000 1.0000
vt 0.4583 1.0000 1.0000
vt 0.5000 1.0000 1.0000
vt 0.5417 1.0000 1.0000
vt 0.5833 1.0000 1.0000
vt 0.6250 1.0000 1.0000
vt 0.6667 1.0000 1.0000
vt 0.7083 1.0000 1.0000
vt 0.5000 1.0000 0.0000
vt -0.0076 1.0000 0.9319
# 128 texture coords

g Cone01
usemtl 01___Default
s 1
f 1/1/1 1/1/1 1/1/1 1/1/1 
f 1/1/1 1/1/1 1/1/1 1/1/1 
f 1/1/1 1/1/1 1/1/1 1/1/1 
f 1/1/1 1/1/1 1/1/1 1/1/1 
f 1/1/1 1/1/1 1/1/1 1/1/1 
f 1/1/1 1/1/1 1/1/1 1/1/1 
f 1/1/1 1/1/1 1/1/1 1/1/1 
f 1/1/1 1/1/1 1/1/1 1/1/1 
f 1/1/1 1/1/1 1/1/1 1/1/1 
f 1/1/1 1/1/1 1/1/1 1/1/1 
f 1/1/1 1/1/1 1/1/1 1/1/1 
f 1/1/1 1/1/1 1/1/1 1/1/1 
s 8
f 1/1/2 1/1/3 2/2/4 3/3/5 
f 1/1/3 1/1/6 4/4/7 2/2/4 
f 1/1/6 1/1/8 5/5/9 4/4/7 
f 1/1/8 1/1/10 6/6/11 5/5/9 
f 1/1/10 1/1/12 7/7/13 6/6/11 
f 1/1/12 1/1/14 8/8/15 7/7/13 
f 1/1/14 1/1/16 9/9/17 8/10/15 
f 1/1/16 1/1/18 10/11/19 9/9/17 
f 1/1/18 1/1/20 11/12/21 10/11/19 
f 1/1/20 1/1/22 12/13/23 11/12/21 
f 1/1/22 1/1/24 13/14/25 12/13/23 
f 1/1/24 1/1/26 14/15/27 13/14/25 
f 1/1/26 1/1/28 15/16/29 14/15/27 
f 1/1/28 1/1/30 16/17/31 15/16/29 
f 1/1/30 1/1/32 17/18/33 16/17/31 
f 1/1/32 1/1/34 18/19/35 17/18/33 
f 1/1/34 1/1/36 19/20/37 18/19/35 
f 1/1/36 1/1/38 20/21/39 19/20/37 
f 1/1/38 1/1/40 21/22/41 20/21/39 
f 1/1/40 1/1/42 22/23/43 21/22/41 
f 1/1/42 1/1/44 23/24/45 22/23/43 
f 1/1/44 1/1/46 24/25/47 23/24/45 
f 1/1/46 1/1/48 25/26/49 24/25/47 
f 1/1/48 1/1/2 3/3/5 25/26/49 
f 3/3/5 2/2/4 26/27/4 27/28/5 
f 2/2/4 4/4/7 28/29/7 26/27/4 
f 4/4/7 5/5/9 29/30/9 28/29/7 
f 5/5/9 6/6/11 30/31/11 29/30/9 
f 6/6/11 7/7/13 31/32/13 30/31/11 
f 7/7/13 8/8/15 32/33/50 31/32/13 
f 8/10/15 9/9/17 33/34/17 32/35/50 
f 9/9/17 10/11/19 34/36/19 33/34/17 
f 10/11/19 11/12/21 35/37/21 34/36/19 
f 11/12/21 12/13/23 36/38/23 35/37/21 
f 12/13/23 13/14/25 37/39/25 36/38/23 
f 13/14/25 14/15/27 38/40/27 37/39/25 
f 14/15/27 15/16/29 39/41/29 38/40/27 
f 15/16/29 16/17/31 40/42/31 39/41/29 
f 16/17/31 17/18/33 41/43/33 40/42/31 
f 17/18/33 18/19/35 42/44/35 41/43/33 
f 18/19/35 19/20/37 43/45/37 42/44/35 
f 19/20/37 20/21/39 44/46/39 43/45/37 
f 20/21/39 21/22/41 45/47/41 44/46/39 
f 21/22/41 22/23/43 46/48/43 45/47/41 
f 22/23/43 23/24/45 47/49/45 46/48/43 
f 23/24/45 24/25/47 48/50/47 47/49/45 
f 24/25/47 25/26/49 49/51/49 48/50/47 
f 25/26/49 3/3/5 27/28/5 49/51/49 
f 27/28/5 26/27/4 50/52/4 51/53/5 
f 26/27/4 28/29/7 52/54/7 50/52/4 
f 28/29/7 29/30/9 53/55/9 52/54/7 
f 29/30/9 30/31/11 54/56/11 53/55/9 
f 30/31/11 31/32/13 55/57/13 54/56/11 
f 31/32/13 32/33/50 56/58/15 55/57/13 
f 32/35/50 33/34/17 57/59/17 56/60/15 
f 33/34/17 34/36/19 58/61/19 57/59/17 
f 34/36/19 35/37/21 59/62/21 58/61/19 
f 35/37/21 36/38/23 60/63/23 59/62/21 
f 36/38/23 37/39/25 61/64/25 60/63/23 
f 37/39/25 38/40/27 62/65/27 61/64/25 
f 38/40/27 39/41/29 63/66/29 62/65/27 
f 39/41/29 40/42/31 64/67/31 63/66/29 
f 40/42/31 41/43/33 65/68/33 64/67/31 
f 41/43/33 42/44/35 66/69/35 65/68/33 
f 42/44/35 43/45/37 67/70/37 66/69/35 
f 43/45/37 44/46/39 68/71/39 67/70/37 
f 44/46/39 45/47/41 69/72/41 68/71/39 
f 45/47/41 46/48/43 70/73/43 69/72/41 
f 46/48/43 47/49/45 71/74/45 70/73/43 
f 47/49/45 48/50/47 72/75/47 71/74/45 
f 48/50/47 49/51/49 73/76/49 72/75/47 
f 49/51/49 27/28/5 51/53/5 73/76/49 
f 51/53/5 50/52/4 74/77/4 75/78/5 
f 50/52/4 52/54/7 76/79/7 74/77/4 
f 52/54/7 53/55/9 77/80/9 76/79/7 
f 53/55/9 54/56/11 78/81/11 77/80/9 
f 54/56/11 55/57/13 79/82/13 78/81/11 
f 55/57/13 56/58/15 80/83/15 79/82/13 
f 56/60/15 57/59/17 81/84/17 80/85/15 
f 57/59/17 58/61/19 82/86/19 81/84/17 
f 58/61/19 59/62/21 83/87/21 82/86/19 
f 59/62/21 60/63/23 84/88/23 83/87/21 
f 60/63/23 61/64/25 85/89/25 84/88/23 
f 61/64/25 62/65/27 86/90/27 85/89/25 
f 62/65/27 63/66/29 87/91/29 86/90/27 
f 63/66/29 64/67/31 88/92/31 87/91/29 
f 64/67/31 65/68/33 89/93/33 88/92/31 
f 65/68/33 66/69/35 90/94/35 89/93/33 
f 66/69/35 67/70/37 91/95/37 90/94/35 
f 67/70/37 68/71/39 92/96/39 91/95/37 
f 68/71/39 69/72/41 93/97/41 92/96/39 
f 69/72/41 70/73/43 94/98/43 93/97/41 
f 70/73/43 71/74/45 95/99/45 94/98/43 
f 71/74/45 72/75/47 96/100/47 95/99/45 
f 72/75/47 73/76/49 97/101/49 96/100/47 
f 73/76/49 51/53/5 75/78/5 97/101/49 
f 75/78/5 74/77/4 98/102/4 99/103/5 
f 74/77/4 76/79/7 100/104/7 98/102/4 
f 76/79/7 77/80/9 101/105/9 100/104/7 
f 77/80/9 78/81/11 102/106/11 101/105/9 
f 78/81/11 79/82/13 103/107/13 102/106/11 
f 79/82/13 80/83/15 104/108/50 103/107/13 
f 80/85/15 81/84/17 105/109/17 104/110/50 
f 81/84/17 82/86/19 106/111/19 105/109/17 
f 82/86/19 83/87/21 107/112/21 106/111/19 
f 83/87/21 84/88/23 108/113/23 107/112/21 
f 84/88/23 85/89/25 109/114/25 108/113/23 
f 85/89/25 86/90/27 110/115/27 109/114/25 
f 86/90/27 87/91/29 111/116/29 110/115/27 
f 87/91/29 88/92/31 112/117/31 111/116/29 
f 88/92/31 89/93/33 113/118/33 112/117/31 
f 89/93/33 90/94/35 114/119/35 113/118/33 
f 90/94/35 91/95/37 115/120/37 114/119/35 
f 91/95/37 92/96/39 116/121/39 115/120/37 
f 92/96/39 93/97/41 117/122/41 116/121/39 
f 93/97/41 94/98/43 118/123/43 117/122/41 
f 94/98/43 95/99/45 119/124/45 118/123/43 
f 95/99/45 96/100/47 120/125/47 119/124/45 
f 96/100/47 97/101/49 121/126/49 120/125/47 
f 97/101/49 75/78/5 99/103/5 121/126/49 
s 1
f 122/127/51 121/126/51 99/103/51 98/102/51 
f 122/127/51 98/102/51 100/104/51 101/105/51 
f 122/127/51 101/105/51 102/106/51 103/107/51 
f 122/127/51 103/128/51 104/110/51 105/109/51 
f 122/127/51 105/109/51 106/111/51 107/112/51 
f 122/127/51 107/112/51 108/113/51 109/114/51 
f 122/127/51 109/114/51 110/115/51 111/116/51 
f 122/127/51 111/116/51 112/117/51 113/118/51 
f 122/127/51 113/118/51 114/119/51 115/120/51 
f 122/127/51 115/120/51 116/121/51 117/122/51 
f 122/127/51 117/122/51 118/123/51 119/124/51 
f 122/127/51 119/124/51 120/125/51 121/126/51 
# 144 polygons

