# Alias OBJ Model File
# Exported from SketchUp, (c) 2000-2012 Trimble Navigation Limited
# File units = inches

mtllib plaj_topu.mtl

g Mesh1 Model

usemtl FrontColor
v -228.836 -66.1437 96.1561
vt -124.371 70.1104
vn 0.87502 0.471012 0.111749
v -187.996 -120.32 79.0537
vt -102.232 3.73705
vn 0.728212 0.679013 0.093
v -163.039 -120.32 -116.368
vt 94.7764 3.73705
v -198.27 -66.1437 -143.185
vt 116.915 70.1104
f 1/1/1 2/2/2 3/3/2 4/4/1 

v -36.8437 -66.1437 242.298
vt -117.439 70.2851
vn 0.534287 0.471012 -0.701915
v -31.2347 -120.32 198.378
vt -95.3002 3.91175
vn 0.444646 0.679013 -0.58415
vt 101.709 3.91175
vt 123.847 70.2851
f 5/5/3 6/6/4 2/7/4 1/8/3 

v 185.715 -66.1437 149.099
vt -113.711 66.9042
vn -0.340733 0.471012 -0.813664
v 150.484 -120.32 122.281
vt -91.5722 0.530835
vn -0.283566 0.679013 -0.67715
vt 105.437 0.530835
vt 127.575 66.9042
f 7/9/5 8/10/6 6/11/6 5/12/5 

v 216.282 -66.1437 -90.243
vt -116.915 63.3486
vn -0.87502 0.471012 -0.111749
v 175.441 -120.32 -73.1406
vt -94.7764 -3.02478
vn -0.728212 0.679013 -0.093
vt 102.232 -3.02478
vt 124.371 63.3486
f 9/13/7 10/14/8 8/15/8 7/16/7 

v 24.289 -66.1437 -236.385
vt -123.847 63.1739
vn -0.534287 0.471012 0.701915
v 18.68 -120.32 -192.465
vt -101.709 -3.19948
vn -0.444646 0.679013 0.58415
vt 95.3002 -3.19948
vt 117.439 63.1739
f 11/17/9 12/18/10 10/19/10 9/20/9 

vt -127.575 66.5548
vn 0.340733 0.471012 0.813664
vt -105.437 0.181436
vn 0.283566 0.679013 0.67715
vt 91.5722 0.181436
vt 113.711 66.5548
f 4/21/11 3/22/12 12/23/12 11/24/11 

vt -105.437 53.9819
v -117.124 -161.891 -81.4186
vt -76.5853 -11.0208
vn 0.204516 0.848325 0.488382
v 11.3701 -161.891 -135.227
vt 62.721 -11.0208
vt 91.5722 53.9819
f 3/25/12 13/26/13 14/27/13 12/28/12 

vt -102.232 58.7134
v -134.772 -161.891 56.7654
vt -73.3811 -6.28929
vn 0.525209 0.848325 0.0670745
vt 65.9252 -6.28929
vt 94.7764 58.7134
f 2/29/2 15/30/14 13/31/14 3/32/2 

vt -95.3002 58.9459
v -23.9248 -161.891 141.14
vt -66.4489 -6.05681
vn 0.320693 0.848325 -0.421307
vt 72.8573 -6.05681
vt 101.709 58.9459
f 6/33/4 16/34/15 15/35/15 2/36/4 

vt -91.5722 54.4469
v 104.57 -161.891 87.3317
vt -62.721 -10.5558
vn -0.204516 0.848325 -0.488382
vt 76.5853 -10.5558
vt 105.437 54.4469
f 8/37/6 17/38/16 16/39/16 6/40/6 

vt -94.7764 49.7154
v 122.217 -161.891 -50.8522
vt -65.9252 -15.2873
vn -0.525209 0.848325 -0.0670745
vt 73.3811 -15.2873
vt 102.232 49.7154
f 10/41/8 18/42/17 17/43/17 8/44/8 

vt -101.709 49.4829
vt -72.8573 -15.5198
vn -0.320693 0.848325 0.421307
vt 66.4489 -15.5198
vt 95.3002 49.4829
f 12/45/10 14/46/18 18/47/18 10/48/10 

vt -72.8573 38.1209
v 2.85766 -188.024 -68.5727
vt -39.2593 -25.671
vn -0.168503 0.960522 0.22137
v 60.2363 -188.024 -24.8969
vt 32.8509 -25.671
vt 66.4489 38.1209
f 14/49/18 19/50/19 20/51/19 18/52/18 

vt -76.5853 43.4595
v -63.656 -188.024 -40.7192
vt -42.9873 -20.3323
vn 0.10746 0.960522 0.256613
vt 29.1229 -20.3323
vt 62.721 43.4595
f 13/53/13 21/54/20 19/55/20 14/56/13 

vt -73.3811 49.074
v -72.791 -188.024 30.81
vt -39.7831 -14.7178
vn 0.275964 0.960522 0.0352433
vt 32.3271 -14.7178
vt 65.9252 49.074
f 15/57/14 22/58/21 21/59/21 13/60/14 

vt -66.4489 49.3499
v -15.4124 -188.024 74.4858
vt -32.8509 -14.442
vn 0.168503 0.960522 -0.22137
vt 39.2593 -14.442
vt 72.8573 49.3499
f 16/61/15 23/62/22 22/63/22 15/64/15 

vt -62.721 44.0112
v 51.1013 -188.024 46.6323
vt -29.1229 -19.7806
vn -0.10746 0.960522 -0.256613
vt 42.9873 -19.7806
vt 76.5853 44.0112
f 17/65/16 24/66/23 23/67/23 16/68/16 

vt -65.9252 38.3967
vt -32.3271 -25.3951
vn -0.275964 0.960522 -0.0352433
vt 39.7831 -25.3951
vt 73.3811 38.3967
f 18/69/17 20/70/24 24/71/24 17/72/17 

vt -32.3271 29.4618
v -6.27735 -196.938 2.95657
vt 3.72797 -33.6204
vn -0.14016 0.989967 -0.0178998
vt 39.7831 29.4618
f 20/73/24 25/74/25 24/75/24

vt -39.2593 29.1624
vt -3.2042 -33.9197
vn -0.0855815 0.989967 0.112432
vt 32.8509 29.1624
f 19/76/19 25/77/26 20/78/19

vt -42.9873 34.956
vt -6.93217 -28.1262
vn 0.0545781 0.989967 0.130332
vt 29.1229 34.956
f 21/79/20 25/80/27 19/81/20

vt -39.7831 41.0488
vt -3.72797 -22.0333
vn 0.14016 0.989967 0.0178998
vt 32.3271 41.0488
f 22/82/21 25/83/28 21/84/21

vt -32.8509 41.3482
vt 3.2042 -21.734
vn 0.0855815 0.989967 -0.112432
vt 39.2593 41.3482
f 23/85/22 25/86/29 22/87/22

vt -29.1229 35.5547
vt 6.93217 -27.5275
vn -0.0545781 0.989967 -0.130332
vt 42.9873 35.5547
f 24/88/23 25/89/30 23/90/23

v -220.417 -3.05373 -160.044
vt -141.492 80.2208
vn 0.374924 0.240516 0.895312
vt -127.575 12.6829
vt 113.711 12.6829
v 27.815 -3.05373 -263.994
vt 127.627 80.2208
f 26/91/31 4/92/11 11/93/11 27/94/31 

v -254.51 -3.05373 106.907
vt -138.287 82.4174
vn 0.962825 0.240516 0.122962
vt -124.371 14.8795
vt 116.915 14.8795
vt 130.832 82.4174
f 28/95/32 1/96/1 4/97/1 26/98/32 

v -40.3697 -3.05373 269.907
vt -131.355 82.5253
vn 0.587901 0.240516 -0.77235
vt -117.439 14.9874
vt 123.847 14.9874
vt 137.764 82.5253
f 29/99/33 5/100/3 1/101/3 28/102/33 

v 207.863 -3.05373 165.957
vt -127.627 80.4367
vn -0.374924 0.240516 -0.895312
vt -113.711 12.8987
vt 127.575 12.8987
vt 141.492 80.4367
f 30/103/34 7/104/5 5/105/5 29/106/34 

v 241.955 -3.05373 -100.994
vt -130.832 78.24
vn -0.962825 0.240516 -0.122962
vt -116.915 10.7021
vt 124.371 10.7021
vt 138.287 78.24
f 31/107/35 9/108/7 7/109/7 30/110/35 

vt -137.764 78.1321
vn -0.587901 0.240516 0.77235
vt -123.847 10.5942
vt 117.439 10.5942
vt 131.355 78.1321
f 27/111/36 11/112/9 9/113/9 31/114/36 

v 29.0176 64.6501 -273.411
vt -142.51 92.5235
vn -0.605681 -4.75311e-016 0.795708
vt -137.764 24.3223
vt 131.355 24.3223
v 250.712 64.6501 -104.661
vt 136.102 92.5235
f 32/115/37 27/116/36 31/117/36 33/118/37 

v -227.971 64.6501 -165.794
vt -146.238 93.229
vn 0.386263 -4.75311e-016 0.922389
vt -141.492 25.0278
vt 127.627 25.0278
vt 132.374 93.229
f 34/119/38 26/120/31 27/121/31 32/122/38 

v -263.266 64.6501 110.574
vt -143.034 93.9709
vn 0.991943 -4.96281e-016 0.126681
vt -138.287 25.7697
vt 130.832 25.7697
vt 135.578 93.9709
f 35/123/39 28/124/32 26/125/32 34/126/39 

v -41.5723 64.6501 279.324
vt -136.102 94.0074
vn 0.605681 -5.522e-016 -0.795708
vt -131.355 25.8061
vt 137.764 25.8061
vt 142.51 94.0074
f 36/127/40 29/128/33 28/129/33 35/130/40 

v 215.417 64.6501 171.707
vt -132.374 93.3019
vn -0.386263 -5.87149e-016 -0.922389
vt -127.627 25.1007
vt 141.492 25.1007
vt 146.238 93.3019
f 37/131/41 30/132/34 29/133/34 36/134/41 

vt -135.578 92.56
vn -0.991943 -5.1026e-016 -0.126681
vt -130.832 24.3587
vt 138.287 24.3587
vt 143.034 92.56
f 33/135/42 31/136/35 30/137/35 37/138/42 

v 241.955 132.354 -100.994
vt -130.832 103.999
vn -0.962825 -0.240516 -0.122962
vt -135.578 35.7974
vt 143.034 35.7974
v 207.863 132.354 165.957
vt 138.287 103.999
f 38/139/43 33/140/42 37/141/42 39/142/43 

v 27.815 132.354 -263.994
vt -137.764 104.035
vn -0.587901 -0.240516 0.77235
vt -142.51 35.8338
vt 136.102 35.8338
vt 131.355 104.035
f 40/143/44 32/144/37 33/145/37 38/146/44 

v -220.417 132.354 -160.044
vt -141.492 103.33
vn 0.374924 -0.240516 0.895312
vt -146.238 35.1283
vt 132.374 35.1283
vt 127.627 103.33
f 41/147/45 34/148/38 32/149/38 40/150/45 

v -254.51 132.354 106.907
vt -138.287 102.588
vn 0.962825 -0.240516 0.122962
vt -143.034 34.3864
vt 135.578 34.3864
vt 130.832 102.588
f 42/151/46 35/152/39 34/153/39 41/154/46 

v -40.3697 132.354 269.907
vt -131.355 102.551
vn 0.587901 -0.240516 -0.77235
vt -136.102 34.3499
vt 142.51 34.3499
vt 137.764 102.551
f 43/155/47 36/156/40 35/157/40 42/158/47 

vt -127.627 103.257
vn -0.374924 -0.240516 -0.895312
vt -132.374 35.0554
vt 146.238 35.0554
vt 141.492 103.257
f 39/159/48 37/160/41 36/161/41 43/162/48 

v 185.715 195.444 149.099
vt -113.711 107.886
vn -0.340733 -0.471012 -0.813664
vt -127.627 40.348
vt 141.492 40.348
v -36.8437 195.444 242.298
vt 127.575 107.886
f 44/163/49 39/164/48 43/165/48 45/166/49 

v 216.282 195.444 -90.243
vt -116.915 110.083
vn -0.87502 -0.471012 -0.111749
vt -130.832 42.5447
vt 138.287 42.5447
vt 124.371 110.083
f 46/167/50 38/168/43 39/169/43 44/170/50 

v 24.289 195.444 -236.385
vt -123.847 110.191
vn -0.534287 -0.471012 0.701915
vt -137.764 42.6526
vt 131.355 42.6526
vt 117.439 110.191
f 47/171/51 40/172/44 38/173/44 46/174/51 

v -198.27 195.444 -143.185
vt -127.575 108.102
vn 0.340733 -0.471012 0.813664
vt -141.492 40.5639
vt 127.627 40.5639
vt 113.711 108.102
f 48/175/52 41/176/45 40/177/45 47/178/52 

v -228.836 195.444 96.1561
vt -124.371 105.905
vn 0.87502 -0.471012 0.111749
vt -138.287 38.3673
vt 130.832 38.3673
vt 116.915 105.905
f 49/179/53 42/180/46 41/181/46 48/182/53 

vt -117.439 105.797
vn 0.534287 -0.471012 -0.701915
vt -131.355 38.2594
vt 137.764 38.2594
vt 123.847 105.797
f 45/183/54 43/184/47 42/185/47 49/186/54 

v -31.2347 249.621 198.378
vt -95.3002 101.628
vn 0.444646 -0.679013 -0.58415
vt -117.439 35.2549
vt 123.847 35.2549
v -187.996 249.621 79.0537
vt 101.709 101.628
f 50/187/55 45/188/54 49/189/54 51/190/55 

v 150.484 249.621 122.281
vt -91.5722 105.009
vn -0.283566 -0.679013 -0.67715
vt -113.711 38.6358
vt 127.575 38.6358
vt 105.437 105.009
f 52/191/56 44/192/49 45/193/49 50/194/56 

v 175.441 249.621 -73.1406
vt -94.7764 108.565
vn -0.728212 -0.679013 -0.093
vt -116.915 42.1914
vt 124.371 42.1914
vt 102.232 108.565
f 53/195/57 46/196/50 44/197/50 52/198/57 

v 18.68 249.621 -192.465
vt -101.709 108.739
vn -0.444646 -0.679013 0.58415
vt -123.847 42.3661
vt 117.439 42.3661
vt 95.3002 108.739
f 54/199/58 47/200/51 46/201/51 53/202/58 

v -163.039 249.621 -116.368
vt -105.437 105.359
vn 0.283566 -0.679013 0.67715
vt -127.575 38.9852
vt 113.711 38.9852
vt 91.5722 105.359
f 55/203/59 48/204/52 47/205/52 54/206/59 

vt -102.232 101.803
vn 0.728212 -0.679013 0.093
vt -124.371 35.4296
vt 116.915 35.4296
vt 94.7764 101.803
f 51/207/60 49/208/53 48/209/53 55/210/60 

v -134.772 291.192 56.7654
vt -73.3811 88.9807
vn 0.525209 -0.848325 0.0670745
vt -102.232 23.978
vt 94.7764 23.978
v -117.124 291.192 -81.4186
vt 65.9252 88.9807
f 56/211/61 51/212/60 55/213/60 57/214/61 

v -23.9248 291.192 141.14
vt -66.4489 88.7482
vn 0.320693 -0.848325 -0.421307
vt -95.3002 23.7455
vt 101.709 23.7455
vt 72.8573 88.7482
f 58/215/62 50/216/55 51/217/55 56/218/62 

v 104.57 291.192 87.3317
vt -62.721 93.2472
vn -0.204516 -0.848325 -0.488382
vt -91.5722 28.2445
vt 105.437 28.2445
vt 76.5853 93.2472
f 59/219/63 52/220/56 50/221/56 58/222/63 

v 122.217 291.192 -50.8522
vt -65.9252 97.9787
vn -0.525209 -0.848325 -0.0670745
vt -94.7764 32.976
vt 102.232 32.976
vt 73.3811 97.9787
f 60/223/64 53/224/57 52/225/57 59/226/64 

v 11.3701 291.192 -135.227
vt -72.8573 98.2111
vn -0.320693 -0.848325 0.421307
vt -101.709 33.2085
vt 95.3002 33.2085
vt 66.4489 98.2111
f 61/227/65 54/228/58 53/229/58 60/230/65 

vt -76.5853 93.7121
vn 0.204516 -0.848325 0.488382
vt -105.437 28.7095
vt 91.5722 28.7095
vt 62.721 93.7121
f 57/231/66 55/232/59 54/233/59 61/234/66 

v -63.656 317.324 -40.7192
vt -42.9873 73.301
vn 0.10746 -0.960522 0.256613
vt -76.5853 9.50914
vt 62.721 9.50914
v 2.85766 317.324 -68.5727
vt 29.1229 73.301
f 62/235/67 57/236/66 61/237/66 63/238/67 

v -72.791 317.324 30.81
vt -39.7831 67.6865
vn 0.275964 -0.960522 0.0352433
vt -73.3811 3.89464
vt 65.9252 3.89464
vt 32.3271 67.6865
f 64/239/68 56/240/61 57/241/61 62/242/68 

v -15.4124 317.324 74.4858
vt -32.8509 67.4106
vn 0.168503 -0.960522 -0.22137
vt -66.4489 3.61878
vt 72.8573 3.61878
vt 39.2593 67.4106
f 65/243/69 58/244/62 56/245/62 64/246/69 

v 51.1013 317.324 46.6323
vt -29.1229 72.7493
vn -0.10746 -0.960522 -0.256613
vt -62.721 8.95742
vt 76.5853 8.95742
vt 42.9873 72.7493
f 66/247/70 59/248/63 58/249/63 65/250/70 

v 60.2363 317.324 -24.8969
vt -32.3271 78.3638
vn -0.275964 -0.960522 -0.0352433
vt -65.9252 14.5719
vt 73.3811 14.5719
vt 39.7831 78.3638
f 67/251/71 60/252/64 59/253/64 66/254/71 

vt -39.2593 78.6396
vn -0.168503 -0.960522 0.22137
vt -72.8573 14.8478
vt 66.4489 14.8478
vt 32.8509 78.6396
f 63/255/72 61/256/65 60/257/65 67/258/72 

v -6.27735 326.238 2.95657
vt -3.2042 52.1896
vn -0.0855815 -0.989967 0.112432
vt -39.2593 -10.8926
vt 32.8509 -10.8926
f 68/259/73 63/260/72 67/261/72

vt -6.93217 46.3961
vn 0.0545781 -0.989967 0.130332
vt -42.9873 -16.6861
vt 29.1229 -16.6861
f 68/262/74 62/263/67 63/264/67

vt -3.72797 40.3032
vn 0.14016 -0.989967 0.0178998
vt -39.7831 -22.779
vt 32.3271 -22.779
f 68/265/75 64/266/68 62/267/68

vt 3.2042 40.0038
vn 0.0855815 -0.989967 -0.112432
vt -32.8509 -23.0783
vt 39.2593 -23.0783
f 68/268/76 65/269/69 64/270/69

vt 6.93217 45.7974
vn -0.0545781 -0.989967 -0.130332
vt -29.1229 -17.2848
vt 42.9873 -17.2848
f 68/271/77 66/272/70 65/273/70

vt 3.72797 51.8902
vn -0.14016 -0.989967 -0.0178998
vt -32.3271 -11.1919
vt 39.7831 -11.1919
f 68/274/78 67/275/71 66/276/71

