# Alias OBJ Model File
# Exported from SketchUp, (c) 2000-2012 Trimble Navigation Limited
# File units = inches

mtllib cift_piramit.mtl

g Mesh1 Model

usemtl FrontColor
v -40.2728 1.2125 38.7502
vt 40.2728 -17.0592
vn -3.79044e-017 -0.467888 -0.883788
v -0.785299 75.8 -0.737283
vt 0.785299 67.3361
v 38.7022 1.2125 38.7502
vt -38.7022 -17.0592
f 1/1/1 2/2/1 3/3/1

vt -38.7502 -17.7716
vn 0.883788 -0.467888 2.84283e-017
v -40.2728 1.2125 -40.2248
vt 40.2248 -17.7716
vt 0.737283 66.6237
f 1/4/2 4/5/2 2/6/2

vt -40.2728 -38.7502
vn 0 1 -0
vt 38.7022 -38.7502
v 38.7022 1.2125 -40.2248
vt 38.7022 40.2248
vt -40.2728 40.2248
f 1/7/3 3/8/3 5/9/3 4/10/3 

v -0.785299 -73.375 -0.737283
vt 0.785299 -65.1929
vn -3.79044e-017 0.467888 -0.883788
vt 40.2728 19.2023
vt -38.7022 19.2023
f 6/11/4 1/12/4 3/13/4

vt 40.2248 19.9147
vn 0.883788 0.467888 2.84283e-017
vt -38.7502 19.9147
vt 0.737283 -64.4805
f 4/14/5 1/15/5 6/16/5

vt -0.785299 -64.503
vn -5.68567e-018 0.467888 0.883788
vt 38.7022 19.8923
vt -40.2728 19.8923
f 6/17/6 5/18/6 4/19/6

vt 38.7502 19.1799
vn -0.883788 0.467888 2.84283e-017
vt -40.2248 19.1799
vt -0.737283 -65.2154
f 3/20/7 5/21/7 6/22/7

vt -40.2248 -17.0367
vn -0.883788 -0.467888 2.84283e-017
vt 38.7502 -17.0367
vt -0.737283 67.3586
f 5/23/8 3/24/8 2/25/8

vt 38.7022 -17.7491
vn -5.68567e-018 -0.467888 0.883788
vt -0.785299 66.6462
vt -40.2728 -17.7491
f 5/26/9 2/27/9 4/28/9

